<mxfile host="app.diagrams.net" modified="2024-02-12T05:20:43.149Z" agent="Mozilla/5.0 (Macintosh; Intel Mac OS X 10.15; rv:122.0) Gecko/20100101 Firefox/122.0" version="23.1.2" etag="5SGHr9m4l0UvmCUIxte2" type="github">
  <diagram name="Page-1" id="M8bBUFj3UF1RejuJmNBT">
    <mxGraphModel>
      <root>
        <mxCell id="0" />
        <mxCell id="1" parent="0" />
      </root>
    </mxGraphModel>
  </diagram>
</mxfile>
